<?xml version="1.0" encoding="UTF-8" standalone="no"?>
<svg
   xmlns:dc="http://purl.org/dc/elements/1.1/"
   xmlns:cc="http://creativecommons.org/ns#"
   xmlns:rdf="http://www.w3.org/1999/02/22-rdf-syntax-ns#"
   xmlns:svg="http://www.w3.org/2000/svg"
   xmlns="http://www.w3.org/2000/svg"
   xmlns:sodipodi="http://sodipodi.sourceforge.net/DTD/sodipodi-0.dtd"
   xmlns:inkscape="http://www.inkscape.org/namespaces/inkscape"
   inkscape:version="1.0rc1 (09960d6f05, 2020-04-09)"
   sodipodi:docname="power_white.svg"
   xml:space="preserve"
   style="enable-background:new 0 0 512 512;"
   viewBox="0 0 512 512"
   y="0px"
   x="0px"
   id="Layer_1"
   version="1.1"><metadata
   id="metadata929"><rdf:RDF><cc:Work
       rdf:about=""><dc:format>image/svg+xml</dc:format><dc:type
         rdf:resource="http://purl.org/dc/dcmitype/StillImage" /><dc:title></dc:title></cc:Work></rdf:RDF></metadata><defs
   id="defs927" /><sodipodi:namedview
   inkscape:current-layer="Layer_1"
   inkscape:window-maximized="1"
   inkscape:window-y="-8"
   inkscape:window-x="-8"
   inkscape:cy="256"
   inkscape:cx="256"
   inkscape:zoom="1.3476562"
   showgrid="false"
   id="namedview925"
   inkscape:window-height="1017"
   inkscape:window-width="1920"
   inkscape:pageshadow="2"
   inkscape:pageopacity="0"
   guidetolerance="10"
   gridtolerance="10"
   objecttolerance="10"
   borderopacity="1"
   bordercolor="#666666"
   pagecolor="#ffffff" />
<g
   style="fill:#ffffff;fill-opacity:1"
   id="g886">
	<g
   style="fill:#ffffff;fill-opacity:1"
   id="g884">
		<path
   style="fill:#ffffff;fill-opacity:1"
   id="path882"
   d="M256.026,0c-24.816,0-45.004,20.188-45.004,45.004v181.016c0,24.816,20.188,45.004,45.004,45.004    s45.004-20.188,45.004-45.004V45.004C301.03,20.188,280.842,0,256.026,0z" />
	</g>
</g>
<g
   style="fill:#ffffff;fill-opacity:1"
   id="g892">
	<g
   style="fill:#ffffff;fill-opacity:1"
   id="g890">
		<path
   style="fill:#ffffff;fill-opacity:1"
   id="path888"
   d="M406.625,118.959c-18.939-17.083-46.502-15.14-63.041,1.873c-16.632,17.109-17.917,46.086,3.153,65.296    c33.44,30.395,50.343,76.459,42.336,122.928c-10.868,63.067-65.717,112.767-133.05,112.915    c-68.971,0.152-121.809-50.77-132.708-110.617c-8.497-46.747,7.179-93.553,41.972-125.197c21.01-19.127,19.913-48.232,3.234-65.36    c-16.567-17.013-44.295-18.851-63.4-1.56c-52.909,47.923-80.527,118.769-72.843,190.58C44.496,423.995,140.9,512,256.553,512    c114.326,0,207.934-88.216,222.368-194.743C488.985,243.027,461.957,168.899,406.625,118.959z" />
	</g>
</g>
<g
   id="g894">
</g>
<g
   id="g896">
</g>
<g
   id="g898">
</g>
<g
   id="g900">
</g>
<g
   id="g902">
</g>
<g
   id="g904">
</g>
<g
   id="g906">
</g>
<g
   id="g908">
</g>
<g
   id="g910">
</g>
<g
   id="g912">
</g>
<g
   id="g914">
</g>
<g
   id="g916">
</g>
<g
   id="g918">
</g>
<g
   id="g920">
</g>
<g
   id="g922">
</g>
</svg>
